<svg xmlns="http://www.w3.org/2000/svg" width="53" height="44" viewBox="0 0 53 44"><g><g><path fill="#d4d4d4" d="M20.3 0l2.803 4.855c-2.357 1.461-4.269 2.729-5.712 3.76-1.444 1.053-2.93 2.45-4.438 4.168-1.402 1.633-2.485 3.33-3.228 5.092-.764 1.783-1.274 4.082-1.571 6.875h3.61c3.1 0 5.52.838 7.304 2.514 1.784 1.675 2.676 4.103 2.676 7.326 0 2.299-.829 4.447-2.464 6.424C17.624 43.012 15.373 44 12.507 44c-4.48 0-7.687-1.525-9.62-4.598C.957 36.352 0 32.312 0 27.328c0-3.523.722-6.725 2.187-9.625a33.85 33.85 0 0 1 5.309-7.777c2.123-2.32 4.395-4.297 6.794-5.93A221.477 221.477 0 0 1 20.3 0zm29.897 0L53 4.855c-2.357 1.461-4.268 2.729-5.712 3.76-1.444 1.053-2.93 2.45-4.438 4.168-1.444 1.676-2.548 3.395-3.27 5.135-.722 1.762-1.231 4.039-1.529 6.832h3.61c3.1 0 5.52.838 7.304 2.514 1.784 1.675 2.676 4.103 2.676 7.326 0 2.299-.828 4.447-2.463 6.424C47.522 43.012 45.27 44 42.404 44c-4.48 0-7.686-1.525-9.619-4.598-1.932-3.05-2.888-7.09-2.888-12.074 0-3.523.722-6.725 2.188-9.625 1.443-2.9 3.227-5.5 5.308-7.777 2.123-2.32 4.395-4.297 6.795-5.93A221.373 221.373 0 0 1 50.198 0z"/></g></g></svg>